<svg width="863" height="321" viewBox="0 0 863 321" fill="none" xmlns="http://www.w3.org/2000/svg">
<rect width="863" height="321" fill="white"/>
<path d="M205.961 124.273V197H223.078V152.078H223.681L241.153 196.538H252.091L269.562 152.327H270.166V197H287.282V124.273H265.514L247.048 169.301H246.196L227.73 124.273H205.961ZM298.246 197H315.612V142.455H298.246V197ZM306.947 136.098C311.883 136.098 315.86 132.369 315.86 127.788C315.86 123.207 311.883 119.514 306.947 119.514C302.046 119.514 298.033 123.207 298.033 127.788C298.033 132.369 302.046 136.098 306.947 136.098ZM352.126 198.03C367.467 198.03 376.984 189.116 377.446 175.622H361.217C360.578 181.411 357.098 184.571 352.339 184.571C346.231 184.571 342.254 179.422 342.254 169.727C342.254 160.104 346.267 154.955 352.339 154.955C357.311 154.955 360.542 158.328 361.217 163.903H377.446C377.055 150.48 367.254 141.744 352.091 141.744C334.939 141.744 324.569 153.179 324.569 169.905C324.569 186.56 334.868 198.03 352.126 198.03ZM386.332 197H403.697V167.384C403.697 160.885 408.314 156.517 414.528 156.517C416.588 156.517 419.678 156.872 421.347 157.44V142.348C419.891 141.957 418.08 141.709 416.482 141.709C410.516 141.709 405.757 145.189 403.768 152.398H403.2V142.455H386.332V197ZM451.052 198.03C468.204 198.03 478.609 186.702 478.609 169.905C478.609 153.072 468.204 141.744 451.052 141.744C433.9 141.744 423.495 153.072 423.495 169.905C423.495 186.702 433.9 198.03 451.052 198.03ZM451.158 184.926C444.731 184.926 441.18 178.818 441.18 169.798C441.18 160.743 444.731 154.599 451.158 154.599C457.373 154.599 460.924 160.743 460.924 169.798C460.924 178.818 457.373 184.926 451.158 184.926Z" fill="#3828EE"/>
<path d="M514.386 197C536.545 197 550.288 183.328 550.288 160.601C550.288 137.909 536.545 124.273 514.351 124.273H487.504V197H514.386ZM505.082 182.014V139.259H513.463C525.963 139.259 532.675 144.94 532.675 160.601C532.675 176.332 525.963 182.014 513.712 182.014H505.082ZM560.551 197H577.916V142.455H560.551V197ZM569.251 136.098C574.188 136.098 578.165 132.369 578.165 127.788C578.165 123.207 574.188 119.514 569.251 119.514C564.351 119.514 560.338 123.207 560.338 127.788C560.338 132.369 564.351 136.098 569.251 136.098ZM619.971 142.455H609.566V139.401C609.566 136.276 610.844 134.358 614.892 134.358C616.526 134.358 618.515 134.713 619.793 135.104L622.563 122.391C620.503 121.822 615.78 120.864 610.986 120.864C599.871 120.864 592.236 127.043 592.236 139.685V142.455H584.885V155.239H592.236V197H609.566V155.239H619.971V142.455ZM659.326 142.455H648.921V139.401C648.921 136.276 650.2 134.358 654.248 134.358C655.881 134.358 657.87 134.713 659.148 135.104L661.918 122.391C659.859 121.822 655.136 120.864 650.342 120.864C639.227 120.864 631.592 127.043 631.592 139.685V142.455H624.241V155.239H631.592V197H648.921V155.239H659.326V142.455Z" fill="black"/>
</svg>
